<svg viewBox="0 0 1500 500" width="100%" color="text" xmlns="http://www.w3.org/2000/svg">
  <g id="Layer_1">
    <title>Layer 1</title>
    <g id="a" />
    <g id="b">
      <g id="svg_11">
        <g id="svg_10">
          <g id="svg_4">
            <path id="svg_2" fill="#00bd8a"
              d="m80.71,71.91c0,-3.69 2.07,-6.89 5.12,-8.51c-21.51,-2.27 -38.28,-20.47 -38.28,-42.59c0,-3.2 0.36,-6.31 1.03,-9.3c-13.23,11.65 -21.58,28.7 -21.58,47.71c0,31.76 23.28,58.08 53.71,62.84l0,-50.15z"
              class="d" />
            <path id="svg_3" fill="#00bd8a"
              d="m132.06,11c0.74,3.15 1.14,6.43 1.14,9.81c0,22.13 -16.78,40.34 -38.32,42.59c3.04,1.62 5.11,4.82 5.11,8.51l0,50.23c30.68,-4.54 54.22,-30.97 54.22,-62.91c0,-19.29 -8.6,-36.56 -22.16,-48.22l0.01,-0.01z"
              class="d" />
          </g>
          <g id="svg_7">
            <path id="svg_5" fill="#fff"
              d="m80.71,71.91c0,-3.7 2.09,-6.92 5.16,-8.53c-14.63,-1.53 -27.07,-10.42 -33.54,-22.91c-1.98,4.77 -3.08,9.99 -3.08,15.47c0,19.23 13.45,35.32 31.46,39.38l0,-23.41z"
              class="e" />
            <path id="svg_6" fill="#fff"
              d="m127.56,42.05c-6.68,11.67 -18.69,19.87 -32.71,21.33c3.06,1.62 5.15,4.83 5.15,8.53l0,23.06c17.28,-4.58 30.02,-20.31 30.02,-39.03c0,-4.88 -0.87,-9.56 -2.45,-13.89l-0.01,0z"
              class="e" />
          </g>
          <path id="svg_8" fill="#fff"
            d="m90.35,24.7c-5.32,0 -9.64,4.32 -9.64,9.64l0,37.57c0,-5.32 4.32,-9.64 9.64,-9.64s9.64,4.32 9.64,9.64l0,-37.57c0,-5.32 -4.32,-9.64 -9.64,-9.64z"
            class="e" />
          <path id="svg_9" fill="#00bd8a"
            d="m90.35,42.66c-5.32,0 -9.64,4.32 -9.64,9.64l0,19.6c0,-5.32 4.32,-9.64 9.64,-9.64s9.64,4.32 9.64,9.64l0,-19.6c0,-5.32 -4.32,-9.64 -9.64,-9.64z"
            class="d" />
        </g>
      </g>
    </g>
    <g id="svg_13" />
    <g id="svg_24">
      <g id="svg_23">
        <g id="svg_22">
          <g id="svg_16">
            <path id="svg_14" fill="#00bd8a"
              d="m308.71,361.91c0,-3.69 2.07,-6.89 5.12,-8.51c-21.51,-2.27 -38.28,-20.47 -38.28,-42.59c0,-3.2 0.36,-6.31 1.03,-9.3c-13.23,11.65 -21.58,28.7 -21.58,47.71c0,31.76 23.28,58.08 53.71,62.84l0,-50.15z"
              class="d" />
            <path id="svg_15" fill="#00bd8a"
              d="m360.06,301c0.74,3.15 1.14,6.43 1.14,9.81c0,22.13 -16.78,40.34 -38.32,42.59c3.04,1.62 5.11,4.82 5.11,8.51l0,50.23c30.68,-4.54 54.22,-30.97 54.22,-62.91c0,-19.29 -8.6,-36.56 -22.16,-48.22l0.01,-0.01z"
              class="d" />
          </g>
          <g id="svg_19">
            <path id="svg_17" fill="#fff"
              d="m308.71,361.91c0,-3.7 2.09,-6.92 5.16,-8.53c-14.63,-1.53 -27.07,-10.42 -33.54,-22.91c-1.98,4.77 -3.08,9.99 -3.08,15.47c0,19.23 13.45,35.32 31.46,39.38l0,-23.41z"
              class="e" />
            <path id="svg_18" fill="#fff"
              d="m355.56,332.05c-6.68,11.67 -18.69,19.87 -32.71,21.33c3.06,1.62 5.15,4.83 5.15,8.53l0,23.06c17.28,-4.58 30.02,-20.31 30.02,-39.03c0,-4.88 -0.87,-9.56 -2.45,-13.89l-0.01,0z"
              class="e" />
          </g>
          <path id="svg_20" fill="#fff"
            d="m318.35,314.7c-5.32,0 -9.64,4.32 -9.64,9.64l0,37.57c0,-5.32 4.32,-9.64 9.64,-9.64s9.64,4.32 9.64,9.64l0,-37.57c0,-5.32 -4.32,-9.64 -9.64,-9.64z"
            class="e" />
          <path id="svg_21" fill="#00bd8a"
            d="m318.35,332.66c-5.32,0 -9.64,4.32 -9.64,9.64l0,19.6c0,-5.32 4.32,-9.64 9.64,-9.64s9.64,4.32 9.64,9.64l0,-19.6c0,-5.32 -4.32,-9.64 -9.64,-9.64z"
            class="d" />
        </g>
      </g>
    </g>
    <g id="svg_25" />
    <g id="svg_36">
      <g id="svg_35">
        <g id="svg_34">
          <g id="svg_28">
            <path id="svg_26" fill="#00bd8a"
              d="m899.71,436.91c0,-3.69 2.07,-6.89 5.12,-8.51c-21.51,-2.27 -38.28,-20.47 -38.28,-42.59c0,-3.2 0.36,-6.31 1.03,-9.3c-13.23,11.65 -21.58,28.7 -21.58,47.71c0,31.76 23.28,58.08 53.71,62.84l0,-50.15z"
              class="d" />
            <path id="svg_27" fill="#00bd8a"
              d="m951.06,376c0.74,3.15 1.14,6.43 1.14,9.81c0,22.13 -16.78,40.34 -38.32,42.59c3.04,1.62 5.11,4.82 5.11,8.51l0,50.23c30.68,-4.54 54.22,-30.97 54.22,-62.91c0,-19.29 -8.6,-36.56 -22.16,-48.22l0.01,-0.01z"
              class="d" />
          </g>
          <g id="svg_31">
            <path id="svg_29" fill="#fff"
              d="m899.71,436.91c0,-3.7 2.09,-6.92 5.16,-8.53c-14.63,-1.53 -27.07,-10.42 -33.54,-22.91c-1.98,4.77 -3.08,9.99 -3.08,15.47c0,19.23 13.45,35.32 31.46,39.38l0,-23.41z"
              class="e" />
            <path id="svg_30" fill="#fff"
              d="m946.56,407.05c-6.68,11.67 -18.69,19.87 -32.71,21.33c3.06,1.62 5.15,4.83 5.15,8.53l0,23.06c17.28,-4.58 30.02,-20.31 30.02,-39.03c0,-4.88 -0.87,-9.56 -2.45,-13.89l-0.01,0z"
              class="e" />
          </g>
          <path id="svg_32" fill="#fff"
            d="m909.35,389.7c-5.32,0 -9.64,4.32 -9.64,9.64l0,37.57c0,-5.32 4.32,-9.64 9.64,-9.64s9.64,4.32 9.64,9.64l0,-37.57c0,-5.32 -4.32,-9.64 -9.64,-9.64z"
            class="e" />
          <path id="svg_33" fill="#00bd8a"
            d="m909.35,407.66c-5.32,0 -9.64,4.32 -9.64,9.64l0,19.6c0,-5.32 4.32,-9.64 9.64,-9.64s9.64,4.32 9.64,9.64l0,-19.6c0,-5.32 -4.32,-9.64 -9.64,-9.64z"
            class="d" />
        </g>
      </g>
    </g>
    <g id="svg_37" />
    <g id="svg_48">
      <g id="svg_47">
        <g id="svg_46">
          <g id="svg_40">
            <path id="svg_38" fill="#00bd8a"
              d="m1392.71,243.91c0,-3.69 2.07,-6.89 5.12,-8.51c-21.51,-2.27 -38.28,-20.47 -38.28,-42.59c0,-3.2 0.36,-6.31 1.03,-9.3c-13.23,11.65 -21.58,28.7 -21.58,47.71c0,31.76 23.28,58.08 53.71,62.84l0,-50.15z"
              class="d" />
            <path id="svg_39" fill="#00bd8a"
              d="m1444.06,183c0.74,3.15 1.14,6.43 1.14,9.81c0,22.13 -16.78,40.34 -38.32,42.59c3.04,1.62 5.11,4.82 5.11,8.51l0,50.23c30.68,-4.54 54.22,-30.97 54.22,-62.91c0,-19.29 -8.6,-36.56 -22.16,-48.22l0.01,-0.01z"
              class="d" />
          </g>
          <g id="svg_43">
            <path id="svg_41" fill="#fff"
              d="m1392.71,243.91c0,-3.7 2.09,-6.92 5.16,-8.53c-14.63,-1.53 -27.07,-10.42 -33.54,-22.91c-1.98,4.77 -3.08,9.99 -3.08,15.47c0,19.23 13.45,35.32 31.46,39.38l0,-23.41z"
              class="e" />
            <path id="svg_42" fill="#fff"
              d="m1439.56,214.05c-6.68,11.67 -18.69,19.87 -32.71,21.33c3.06,1.62 5.15,4.83 5.15,8.53l0,23.06c17.28,-4.58 30.02,-20.31 30.02,-39.03c0,-4.88 -0.87,-9.56 -2.45,-13.89l-0.01,0z"
              class="e" />
          </g>
          <path id="svg_44" fill="#fff"
            d="m1402.35,196.7c-5.32,0 -9.64,4.32 -9.64,9.64l0,37.57c0,-5.32 4.32,-9.64 9.64,-9.64s9.64,4.32 9.64,9.64l0,-37.57c0,-5.32 -4.32,-9.64 -9.64,-9.64z"
            class="e" />
          <path id="svg_45" fill="#00bd8a"
            d="m1402.35,214.66c-5.32,0 -9.64,4.32 -9.64,9.64l0,19.6c0,-5.32 4.32,-9.64 9.64,-9.64s9.64,4.32 9.64,9.64l0,-19.6c0,-5.32 -4.32,-9.64 -9.64,-9.64z"
            class="d" />
        </g>
      </g>
    </g>
    <g id="svg_49" />
    <g id="svg_61" />
    <g id="svg_72">
      <g id="svg_71">
        <g id="svg_70">
          <g id="svg_64">
            <path id="svg_62" fill="#00bd8a"
              d="m1202.71,63.91c0,-3.69 2.07,-6.89 5.12,-8.51c-21.51,-2.27 -38.28,-20.47 -38.28,-42.59c0,-3.2 0.36,-6.31 1.03,-9.3c-13.23,11.65 -21.58,28.7 -21.58,47.71c0,31.76 23.28,58.08 53.71,62.84l0,-50.15z"
              class="d" />
            <path id="svg_63" fill="#00bd8a"
              d="m1254.06,3c0.74,3.15 1.14,6.43 1.14,9.81c0,22.13 -16.78,40.34 -38.32,42.59c3.04,1.62 5.11,4.82 5.11,8.51l0,50.23c30.68,-4.54 54.22,-30.97 54.22,-62.91c0,-19.29 -8.6,-36.56 -22.16,-48.22l0.01,-0.01z"
              class="d" />
          </g>
          <g id="svg_67">
            <path id="svg_65" fill="#fff"
              d="m1202.71,63.91c0,-3.7 2.09,-6.92 5.16,-8.53c-14.63,-1.53 -27.07,-10.42 -33.54,-22.91c-1.98,4.77 -3.08,9.99 -3.08,15.47c0,19.23 13.45,35.32 31.46,39.38l0,-23.41z"
              class="e" />
            <path id="svg_66" fill="#fff"
              d="m1249.56,34.05c-6.68,11.67 -18.69,19.87 -32.71,21.33c3.06,1.62 5.15,4.83 5.15,8.53l0,23.06c17.28,-4.58 30.02,-20.31 30.02,-39.03c0,-4.88 -0.87,-9.56 -2.45,-13.89l-0.01,0z"
              class="e" />
          </g>
          <path id="svg_68" fill="#fff"
            d="m1212.35,16.7c-5.32,0 -9.64,4.32 -9.64,9.64l0,37.57c0,-5.32 4.32,-9.64 9.64,-9.64s9.64,4.32 9.64,9.64l0,-37.57c0,-5.32 -4.32,-9.64 -9.64,-9.64z"
            class="e" />
          <path id="svg_69" fill="#00bd8a"
            d="m1212.35,34.66c-5.32,0 -9.64,4.32 -9.64,9.64l0,19.6c0,-5.32 4.32,-9.64 9.64,-9.64s9.64,4.32 9.64,9.64l0,-19.6c0,-5.32 -4.32,-9.64 -9.64,-9.64z"
            class="d" />
        </g>
      </g>
    </g>
  </g>
</svg>