<svg viewBox="0 0 1500 500" width="100%" color="text" xmlns="http://www.w3.org/2000/svg">
  <g id="Layer_1">
    <title>Layer 1</title>
    <g id="a" />
    <g id="b">
      <g id="svg_11">
        <g id="svg_10">
          <g id="svg_4">
            <path class="d"
              d="m86.71,85.91c0,-3.69 2.07,-6.89 5.12,-8.51c-21.51,-2.27 -38.28,-20.47 -38.28,-42.59c0,-3.2 0.36,-6.31 1.03,-9.3c-13.23,11.65 -21.58,28.7 -21.58,47.71c0,31.76 23.28,58.08 53.71,62.84l0,-50.15z"
              fill="#00bd8a" id="svg_2" />
            <path class="d"
              d="m138.06,25c0.74,3.15 1.14,6.43 1.14,9.81c0,22.13 -16.78,40.34 -38.32,42.59c3.04,1.62 5.11,4.82 5.11,8.51l0,50.23c30.68,-4.54 54.22,-30.97 54.22,-62.91c0,-19.29 -8.6,-36.56 -22.16,-48.22l0.01,-0.01z"
              fill="#00bd8a" id="svg_3" />
          </g>
          <g id="svg_7">
            <path class="e"
              d="m86.71,85.91c0,-3.7 2.09,-6.92 5.16,-8.53c-14.63,-1.53 -27.07,-10.42 -33.54,-22.91c-1.98,4.77 -3.08,9.99 -3.08,15.47c0,19.23 13.45,35.32 31.46,39.38l0,-23.41z"
              fill="#fff" id="svg_5" />
            <path class="e"
              d="m133.56,56.05c-6.68,11.67 -18.69,19.87 -32.71,21.33c3.06,1.62 5.15,4.83 5.15,8.53l0,23.06c17.28,-4.58 30.02,-20.31 30.02,-39.03c0,-4.88 -0.87,-9.56 -2.45,-13.89l-0.01,0z"
              fill="#fff" id="svg_6" />
          </g>
          <path class="e"
            d="m96.35,38.7c-5.32,0 -9.64,4.32 -9.64,9.64l0,37.57c0,-5.32 4.32,-9.64 9.64,-9.64s9.64,4.32 9.64,9.64l0,-37.57c0,-5.32 -4.32,-9.64 -9.64,-9.64z"
            fill="#fff" id="svg_8" />
          <path class="d"
            d="m96.35,56.66c-5.32,0 -9.64,4.32 -9.64,9.64l0,19.6c0,-5.32 4.32,-9.64 9.64,-9.64s9.64,4.32 9.64,9.64l0,-19.6c0,-5.32 -4.32,-9.64 -9.64,-9.64z"
            fill="#00bd8a" id="svg_9" />
        </g>
      </g>
    </g>
    <g id="svg_13" />
    <g id="svg_24">
      <g id="svg_23">
        <g id="svg_22">
          <g id="svg_16">
            <path class="d"
              d="m290.71,367.91c0,-3.69 2.07,-6.89 5.12,-8.51c-21.51,-2.27 -38.28,-20.47 -38.28,-42.59c0,-3.2 0.36,-6.31 1.03,-9.3c-13.23,11.65 -21.58,28.7 -21.58,47.71c0,31.76 23.28,58.08 53.71,62.84l0,-50.15z"
              fill="#00bd8a" id="svg_14" />
            <path class="d"
              d="m342.06,307c0.74,3.15 1.14,6.43 1.14,9.81c0,22.13 -16.78,40.34 -38.32,42.59c3.04,1.62 5.11,4.82 5.11,8.51l0,50.23c30.68,-4.54 54.22,-30.97 54.22,-62.91c0,-19.29 -8.6,-36.56 -22.16,-48.22l0.01,-0.01z"
              fill="#00bd8a" id="svg_15" />
          </g>
          <g id="svg_19">
            <path class="e"
              d="m290.71,367.91c0,-3.7 2.09,-6.92 5.16,-8.53c-14.63,-1.53 -27.07,-10.42 -33.54,-22.91c-1.98,4.77 -3.08,9.99 -3.08,15.47c0,19.23 13.45,35.32 31.46,39.38l0,-23.41z"
              fill="#fff" id="svg_17" />
            <path class="e"
              d="m337.56,338.05c-6.68,11.67 -18.69,19.87 -32.71,21.33c3.06,1.62 5.15,4.83 5.15,8.53l0,23.06c17.28,-4.58 30.02,-20.31 30.02,-39.03c0,-4.88 -0.87,-9.56 -2.45,-13.89l-0.01,0z"
              fill="#fff" id="svg_18" />
          </g>
          <path class="e"
            d="m300.35,320.7c-5.32,0 -9.64,4.32 -9.64,9.64l0,37.57c0,-5.32 4.32,-9.64 9.64,-9.64s9.64,4.32 9.64,9.64l0,-37.57c0,-5.32 -4.32,-9.64 -9.64,-9.64z"
            fill="#fff" id="svg_20" />
          <path class="d"
            d="m300.35,338.66c-5.32,0 -9.64,4.32 -9.64,9.64l0,19.6c0,-5.32 4.32,-9.64 9.64,-9.64s9.64,4.32 9.64,9.64l0,-19.6c0,-5.32 -4.32,-9.64 -9.64,-9.64z"
            fill="#00bd8a" id="svg_21" />
        </g>
      </g>
    </g>
    <g id="svg_25" />
    <g id="svg_36">
      <g id="svg_35">
        <g id="svg_34">
          <g id="svg_28">
            <path class="d"
              d="m899.71,436.91c0,-3.69 2.07,-6.89 5.12,-8.51c-21.51,-2.27 -38.28,-20.47 -38.28,-42.59c0,-3.2 0.36,-6.31 1.03,-9.3c-13.23,11.65 -21.58,28.7 -21.58,47.71c0,31.76 23.28,58.08 53.71,62.84l0,-50.15z"
              fill="#00bd8a" id="svg_26" />
            <path class="d"
              d="m951.06,376c0.74,3.15 1.14,6.43 1.14,9.81c0,22.13 -16.78,40.34 -38.32,42.59c3.04,1.62 5.11,4.82 5.11,8.51l0,50.23c30.68,-4.54 54.22,-30.97 54.22,-62.91c0,-19.29 -8.6,-36.56 -22.16,-48.22l0.01,-0.01z"
              fill="#00bd8a" id="svg_27" />
          </g>
          <g id="svg_31">
            <path class="e"
              d="m899.71,436.91c0,-3.7 2.09,-6.92 5.16,-8.53c-14.63,-1.53 -27.07,-10.42 -33.54,-22.91c-1.98,4.77 -3.08,9.99 -3.08,15.47c0,19.23 13.45,35.32 31.46,39.38l0,-23.41z"
              fill="#fff" id="svg_29" />
            <path class="e"
              d="m946.56,407.05c-6.68,11.67 -18.69,19.87 -32.71,21.33c3.06,1.62 5.15,4.83 5.15,8.53l0,23.06c17.28,-4.58 30.02,-20.31 30.02,-39.03c0,-4.88 -0.87,-9.56 -2.45,-13.89l-0.01,0z"
              fill="#fff" id="svg_30" />
          </g>
          <path class="e"
            d="m909.35,389.7c-5.32,0 -9.64,4.32 -9.64,9.64l0,37.57c0,-5.32 4.32,-9.64 9.64,-9.64s9.64,4.32 9.64,9.64l0,-37.57c0,-5.32 -4.32,-9.64 -9.64,-9.64z"
            fill="#fff" id="svg_32" />
          <path class="d"
            d="m909.35,407.66c-5.32,0 -9.64,4.32 -9.64,9.64l0,19.6c0,-5.32 4.32,-9.64 9.64,-9.64s9.64,4.32 9.64,9.64l0,-19.6c0,-5.32 -4.32,-9.64 -9.64,-9.64z"
            fill="#00bd8a" id="svg_33" />
        </g>
      </g>
    </g>
    <g id="svg_37" />
    <g id="svg_48">
      <g id="svg_47">
        <g id="svg_46">
          <g id="svg_40">
            <path class="d"
              d="m1404.71,75.91c0,-3.69 2.07,-6.89 5.12,-8.51c-21.51,-2.27 -38.28,-20.47 -38.28,-42.59c0,-3.2 0.36,-6.31 1.03,-9.3c-13.23,11.65 -21.58,28.7 -21.58,47.71c0,31.76 23.28,58.08 53.71,62.84l0,-50.15z"
              fill="#00bd8a" id="svg_38" />
            <path class="d"
              d="m1456.06,15c0.74,3.15 1.14,6.43 1.14,9.81c0,22.13 -16.78,40.34 -38.32,42.59c3.04,1.62 5.11,4.82 5.11,8.51l0,50.23c30.68,-4.54 54.22,-30.97 54.22,-62.91c0,-19.29 -8.6,-36.56 -22.16,-48.22l0.01,-0.01z"
              fill="#00bd8a" id="svg_39" />
          </g>
          <g id="svg_43">
            <path class="e"
              d="m1404.71,75.91c0,-3.7 2.09,-6.92 5.16,-8.53c-14.63,-1.53 -27.07,-10.42 -33.54,-22.91c-1.98,4.77 -3.08,9.99 -3.08,15.47c0,19.23 13.45,35.32 31.46,39.38l0,-23.41z"
              fill="#fff" id="svg_41" />
            <path class="e"
              d="m1451.56,46.05c-6.68,11.67 -18.69,19.87 -32.71,21.33c3.06,1.62 5.15,4.83 5.15,8.53l0,23.06c17.28,-4.58 30.02,-20.31 30.02,-39.03c0,-4.88 -0.87,-9.56 -2.45,-13.89l-0.01,0z"
              fill="#fff" id="svg_42" />
          </g>
          <path class="e"
            d="m1414.35,28.7c-5.32,0 -9.64,4.32 -9.64,9.64l0,37.57c0,-5.32 4.32,-9.64 9.64,-9.64s9.64,4.32 9.64,9.64l0,-37.57c0,-5.32 -4.32,-9.64 -9.64,-9.64z"
            fill="#fff" id="svg_44" />
          <path class="d"
            d="m1414.35,46.66c-5.32,0 -9.64,4.32 -9.64,9.64l0,19.6c0,-5.32 4.32,-9.64 9.64,-9.64s9.64,4.32 9.64,9.64l0,-19.6c0,-5.32 -4.32,-9.64 -9.64,-9.64z"
            fill="#00bd8a" id="svg_45" />
        </g>
      </g>
    </g>
    <g id="svg_49" />
    <g id="svg_61" />
    <g id="svg_72">
      <g id="svg_71">
        <g id="svg_70">
          <g id="svg_64">
            <path class="d"
              d="m1169.71,215.91c0,-3.69 2.07,-6.89 5.12,-8.51c-21.51,-2.27 -38.28,-20.47 -38.28,-42.59c0,-3.2 0.36,-6.31 1.03,-9.3c-13.23,11.65 -21.58,28.7 -21.58,47.71c0,31.76 23.28,58.08 53.71,62.84l0,-50.15z"
              fill="#00bd8a" id="svg_62" />
            <path class="d"
              d="m1221.06,155c0.74,3.15 1.14,6.43 1.14,9.81c0,22.13 -16.78,40.34 -38.32,42.59c3.04,1.62 5.11,4.82 5.11,8.51l0,50.23c30.68,-4.54 54.22,-30.97 54.22,-62.91c0,-19.29 -8.6,-36.56 -22.16,-48.22l0.01,-0.01z"
              fill="#00bd8a" id="svg_63" />
          </g>
          <g id="svg_67">
            <path class="e"
              d="m1169.71,215.91c0,-3.7 2.09,-6.92 5.16,-8.53c-14.63,-1.53 -27.07,-10.42 -33.54,-22.91c-1.98,4.77 -3.08,9.99 -3.08,15.47c0,19.23 13.45,35.32 31.46,39.38l0,-23.41z"
              fill="#fff" id="svg_65" />
            <path class="e"
              d="m1216.56,186.05c-6.68,11.67 -18.69,19.87 -32.71,21.33c3.06,1.62 5.15,4.83 5.15,8.53l0,23.06c17.28,-4.58 30.02,-20.31 30.02,-39.03c0,-4.88 -0.87,-9.56 -2.45,-13.89l-0.01,0z"
              fill="#fff" id="svg_66" />
          </g>
          <path class="e"
            d="m1179.35,168.7c-5.32,0 -9.64,4.32 -9.64,9.64l0,37.57c0,-5.32 4.32,-9.64 9.64,-9.64s9.64,4.32 9.64,9.64l0,-37.57c0,-5.32 -4.32,-9.64 -9.64,-9.64z"
            fill="#fff" id="svg_68" />
          <path class="d"
            d="m1179.35,186.66c-5.32,0 -9.64,4.32 -9.64,9.64l0,19.6c0,-5.32 4.32,-9.64 9.64,-9.64s9.64,4.32 9.64,9.64l0,-19.6c0,-5.32 -4.32,-9.64 -9.64,-9.64z"
            fill="#00bd8a" id="svg_69" />
        </g>
      </g>
    </g>
    <g id="svg_83">
      <g id="svg_82">
        <g id="svg_81">
          <g id="svg_75">
            <path class="d"
              d="m614.71,213.91c0,-3.69 2.07,-6.89 5.12,-8.51c-21.51,-2.27 -38.28,-20.47 -38.28,-42.59c0,-3.2 0.36,-6.31 1.03,-9.3c-13.23,11.65 -21.58,28.7 -21.58,47.71c0,31.76 23.28,58.08 53.71,62.84l0,-50.15z"
              fill="#00bd8a" id="svg_73" />
            <path class="d"
              d="m666.06,153c0.74,3.15 1.14,6.43 1.14,9.81c0,22.13 -16.78,40.34 -38.32,42.59c3.04,1.62 5.11,4.82 5.11,8.51l0,50.23c30.68,-4.54 54.22,-30.97 54.22,-62.91c0,-19.29 -8.6,-36.56 -22.16,-48.22l0.01,-0.01z"
              fill="#00bd8a" id="svg_74" />
          </g>
          <g id="svg_78">
            <path class="e"
              d="m614.71,213.91c0,-3.7 2.09,-6.92 5.16,-8.53c-14.63,-1.53 -27.07,-10.42 -33.54,-22.91c-1.98,4.77 -3.08,9.99 -3.08,15.47c0,19.23 13.45,35.32 31.46,39.38l0,-23.41z"
              fill="#fff" id="svg_76" />
            <path class="e"
              d="m661.56,184.05c-6.68,11.67 -18.69,19.87 -32.71,21.33c3.06,1.62 5.15,4.83 5.15,8.53l0,23.06c17.28,-4.58 30.02,-20.31 30.02,-39.03c0,-4.88 -0.87,-9.56 -2.45,-13.89l-0.01,0z"
              fill="#fff" id="svg_77" />
          </g>
          <path class="e"
            d="m624.35,166.7c-5.32,0 -9.64,4.32 -9.64,9.64l0,37.57c0,-5.32 4.32,-9.64 9.64,-9.64s9.64,4.32 9.64,9.64l0,-37.57c0,-5.32 -4.32,-9.64 -9.64,-9.64z"
            fill="#fff" id="svg_79" />
          <path class="d"
            d="m624.35,184.66c-5.32,0 -9.64,4.32 -9.64,9.64l0,19.6c0,-5.32 4.32,-9.64 9.64,-9.64s9.64,4.32 9.64,9.64l0,-19.6c0,-5.32 -4.32,-9.64 -9.64,-9.64z"
            fill="#00bd8a" id="svg_80" />
        </g>
      </g>
    </g>
    <g id="svg_94">
      <g id="svg_93">
        <g id="svg_92">
          <g id="svg_86">
            <path class="d"
              d="m86.71,85.91c0,-3.69 2.07,-6.89 5.12,-8.51c-21.51,-2.27 -38.28,-20.47 -38.28,-42.59c0,-3.2 0.36,-6.31 1.03,-9.3c-13.23,11.65 -21.58,28.7 -21.58,47.71c0,31.76 23.28,58.08 53.71,62.84l0,-50.15z"
              fill="#00bd8a" id="svg_84" />
            <path class="d"
              d="m138.06,25c0.74,3.15 1.14,6.43 1.14,9.81c0,22.13 -16.78,40.34 -38.32,42.59c3.04,1.62 5.11,4.82 5.11,8.51l0,50.23c30.68,-4.54 54.22,-30.97 54.22,-62.91c0,-19.29 -8.6,-36.56 -22.16,-48.22l0.01,-0.01z"
              fill="#00bd8a" id="svg_85" />
          </g>
          <g id="svg_89">
            <path class="e"
              d="m86.71,85.91c0,-3.7 2.09,-6.92 5.16,-8.53c-14.63,-1.53 -27.07,-10.42 -33.54,-22.91c-1.98,4.77 -3.08,9.99 -3.08,15.47c0,19.23 13.45,35.32 31.46,39.38l0,-23.41z"
              fill="#fff" id="svg_87" />
            <path class="e"
              d="m133.56,56.05c-6.68,11.67 -18.69,19.87 -32.71,21.33c3.06,1.62 5.15,4.83 5.15,8.53l0,23.06c17.28,-4.58 30.02,-20.31 30.02,-39.03c0,-4.88 -0.87,-9.56 -2.45,-13.89l-0.01,0z"
              fill="#fff" id="svg_88" />
          </g>
          <path class="e"
            d="m96.35,38.7c-5.32,0 -9.64,4.32 -9.64,9.64l0,37.57c0,-5.32 4.32,-9.64 9.64,-9.64s9.64,4.32 9.64,9.64l0,-37.57c0,-5.32 -4.32,-9.64 -9.64,-9.64z"
            fill="#fff" id="svg_90" />
          <path class="d"
            d="m96.35,56.66c-5.32,0 -9.64,4.32 -9.64,9.64l0,19.6c0,-5.32 4.32,-9.64 9.64,-9.64s9.64,4.32 9.64,9.64l0,-19.6c0,-5.32 -4.32,-9.64 -9.64,-9.64z"
            fill="#00bd8a" id="svg_91" />
        </g>
      </g>
    </g>
  </g>

</svg>